<svg width="193" height="175" xmlns="http://www.w3.org/2000/svg" xmlns:xlink="http://www.w3.org/1999/xlink" xml:space="preserve" overflow="hidden"><defs><clipPath id="clip0"><rect x="1050" y="480" width="193" height="175"/></clipPath></defs><g clip-path="url(#clip0)" transform="translate(-1050 -480)"><path d="M1242.54 580.903C1242.27 579.357 1240.91 572.902 1237.29 563.628 1233.66 554.445 1228.27 544.763 1226.91 542.354 1220.39 504.032 1185.78 476.802 1147.78 480.303 1135.19 481.439 1122.95 485.985 1112.49 493.44 1110.95 494.531 1110.59 496.668 1111.68 498.213 1112.76 499.759 1114.89 500.123 1116.43 499.031 1125.94 492.258 1137 488.167 1148.41 487.122 1183.06 483.94 1214.64 508.987 1220.3 544.081 1220.34 544.49 1220.53 544.899 1220.71 545.263 1220.75 545.354 1227.05 556.309 1230.94 566.174 1234.75 575.857 1235.88 582.357 1235.88 582.403 1235.88 582.63 1235.97 582.857 1236.06 583.084 1236.47 584.176 1236.06 585.039 1235.79 585.357 1235.52 585.676 1234.93 586.403 1233.8 586.403L1223.61 586.403C1221.84 586.403 1220.39 587.721 1220.21 589.494L1218.03 612.132C1217.45 618.406 1212.46 623.497 1206.21 624.27L1187.28 626.497C1185.56 626.679 1184.29 628.134 1184.29 629.907L1184.29 648.181 1116.79 648.181 1116.79 610.269C1116.79 608.405 1115.25 606.86 1113.4 606.86 1111.54 606.86 1110 608.405 1110 610.269L1110 651.591C1110 653.455 1111.54 655 1113.4 655L1187.68 655C1189.54 655 1191.08 653.455 1191.08 651.591L1191.08 632.952 1206.98 631.089C1216.4 629.998 1223.88 622.315 1224.78 612.86L1226.69 593.267 1233.8 593.267C1236.83 593.267 1239.69 591.767 1241.41 589.222 1243.04 586.812 1243.45 583.721 1242.49 580.994Z" fill-rule="evenodd"/><path d="M1146.35 560.514C1147.98 564.097 1151.52 566.592 1155.7 566.592 1161.37 566.592 1166 561.965 1166 556.296 1166 550.626 1161.37 546 1155.7 546 1150.93 546 1146.94 549.266 1145.8 553.665L1070.11 553.665C1068.79 549.492 1064.93 546.408 1060.3 546.408 1054.63 546.408 1050 551.034 1050 556.704 1050 562.374 1054.63 567 1060.3 567 1064.66 567 1068.34 564.324 1069.83 560.514L1146.35 560.514ZM1155.7 551.941C1158.1 551.941 1160.1 553.892 1160.1 556.341 1160.1 558.79 1158.15 560.741 1155.7 560.741 1153.25 560.741 1151.3 558.79 1151.3 556.341 1151.3 553.892 1153.25 551.941 1155.7 551.941ZM1060.3 561.149C1057.9 561.149 1055.9 559.198 1055.9 556.749 1055.9 554.3 1057.85 552.35 1060.3 552.35 1062.39 552.35 1064.07 553.847 1064.52 555.797 1064.34 556.205 1064.25 556.658 1064.25 557.112 1064.25 557.43 1064.34 557.747 1064.43 558.065 1063.89 559.834 1062.25 561.149 1060.3 561.149Z" fill-rule="evenodd"/><path d="M1080.34 537 1118.84 537C1119.52 537 1120.19 536.776 1120.78 536.373L1148.37 517.156C1150.22 519.127 1152.83 520.337 1155.77 520.337 1161.4 520.337 1166 515.768 1166 510.168 1166 504.569 1161.4 500 1155.77 500 1150.13 500 1145.53 504.569 1145.53 510.168 1145.53 510.392 1145.58 510.616 1145.62 510.84L1117.8 530.236 1080.38 530.236C1078.53 530.236 1077 531.759 1077 533.596 1077 535.432 1078.53 536.955 1080.38 536.955ZM1155.77 505.868C1158.16 505.868 1160.14 507.794 1160.14 510.213 1160.14 512.632 1158.2 514.558 1155.77 514.558 1153.33 514.558 1151.39 512.632 1151.39 510.213 1151.39 507.794 1153.33 505.868 1155.77 505.868Z" fill-rule="evenodd"/><path d="M1145.54 603.589C1145.54 603.589 1145.54 603.81 1145.54 603.943 1145.54 609.481 1150.14 614 1155.77 614 1161.4 614 1166 609.481 1166 603.943 1166 598.405 1161.4 593.886 1155.77 593.886 1152.75 593.886 1150.05 595.215 1148.16 597.297L1120.71 579.532C1120.17 579.177 1119.49 579 1118.86 579L1080.38 579C1078.53 579 1077 580.506 1077 582.323 1077 584.139 1078.53 585.646 1080.38 585.646L1117.87 585.646 1145.59 603.589ZM1155.73 599.646C1158.11 599.646 1160.1 601.551 1160.1 603.943 1160.1 606.336 1158.16 608.241 1155.73 608.241 1153.29 608.241 1151.35 606.336 1151.35 603.943 1151.35 601.551 1153.29 599.646 1155.73 599.646Z" fill-rule="evenodd"/></g></svg>