<svg width="158" height="136" xmlns="http://www.w3.org/2000/svg" xmlns:xlink="http://www.w3.org/1999/xlink" xml:space="preserve" overflow="hidden"><defs><clipPath id="clip0"><rect x="2832" y="567" width="158" height="136"/></clipPath></defs><g clip-path="url(#clip0)" transform="translate(-2832 -567)"><path d="M2947.39 645.492C2941.83 643.472 2936.88 641.658 2934.04 639.349 2944.17 632.094 2950.85 620.262 2950.85 606.864 2950.85 584.891 2932.97 567 2911 567 2889.04 567 2871.15 584.891 2871.15 606.864 2871.15 620.262 2877.83 632.094 2887.96 639.349 2885.12 641.658 2880.18 643.472 2874.61 645.492 2857.63 651.634 2832 660.91 2832 700.238 2832 701.764 2833.24 703 2834.76 703L2987.24 703C2988.76 703 2990 701.764 2990 700.238 2990 660.868 2964.37 651.593 2947.39 645.492ZM2876.67 606.864C2876.67 587.942 2892.04 572.524 2911 572.524 2929.96 572.524 2945.33 587.901 2945.33 606.864 2945.33 625.827 2929.96 641.204 2911 641.204 2892.04 641.204 2876.67 625.827 2876.67 606.864ZM2837.56 697.476C2838.68 664.373 2859.57 656.829 2876.47 650.727 2883.31 648.254 2889.32 646.069 2892.87 642.358 2898.31 645.162 2904.45 646.769 2911 646.769 2917.55 646.769 2923.69 645.162 2929.13 642.358 2932.68 646.069 2938.69 648.254 2945.53 650.727 2962.43 656.829 2983.32 664.373 2984.44 697.476L2837.6 697.476Z" fill-rule="evenodd"/></g></svg>